PathFileType	4	(x/y/z)	S01_M20_T03.trc
DataRate	CameraRate	NumFrames	NumMarkers	Units	OrigDataRate	OrigDataStartFrame	OrigNumFrames
240	240	4	51	mm	240	245	488
Frame#	Time	Sternum			R.Acromium			L.Acromium			Top.Head			R.ASIS			L.ASIS			R.PSIS			L.PSIS			R.Great.Tro			L.Great.Tro			R.Iliac.Crest			L.Iliac.Crest			V.Sacral			R.Thigh.Upper.Post			R.Thigh.Lower.Ant			R.Thigh.Lower.Post			R.Thigh.Upper.Ant			R.Knee.Lat			R.Knee.Med			R.Shank.Upper.Post			R.Shank.Lower.Ant			R.Shank.Lower.Post			R.Shank.Upper.Ant			R.Ankle.Lat			R.Ankle.Med			R.Heel.Upper			R.Heel.Med			R.Heel.Lat			R.Toe.Lat			R.Toe.Med			R.Toe.Tip			L.Thigh.Upper.Post			L.Thigh.Lower.Ant			L.Thigh.Lower.Post			L.Thigh.Upper.Ant			L.Knee.Lat			L.Knee.Med			L.Shank.Upper.Post			L.Shank.Lower.Ant			L.Shank.Lower.Post			L.Shank.Upper.Ant			L.Ankle.Lat			L.Ankle.Med			L.Heel.Upper			L.Heel.Med			L.Heel.Lat			L.Toe.Lat			L.Toe.Med			L.Toe.Tip			Cervical.Spine			Back			
		X1	Y1	Z1	X2	Y2	Z2	X3	Y3	Z3	X4	Y4	Z4	X5	Y5	Z5	X6	Y6	Z6	X7	Y7	Z7	X8	Y8	Z8	X9	Y9	Z9	X10	Y10	Z10	X11	Y11	Z11	X12	Y12	Z12	X13	Y13	Z13	X14	Y14	Z14	X15	Y15	Z15	X16	Y16	Z16	X17	Y17	Z17	X18	Y18	Z18	X19	Y19	Z19	X20	Y20	Z20	X21	Y21	Z21	X22	Y22	Z22	X23	Y23	Z23	X24	Y24	Z24	X25	Y25	Z25	X26	Y26	Z26	X27	Y27	Z27	X28	Y28	Z28	X29	Y29	Z29	X30	Y30	Z30	X31	Y31	Z31	X32	Y32	Z32	X33	Y33	Z33	X34	Y34	Z34	X35	Y35	Z35	X36	Y36	Z36	X37	Y37	Z37	X38	Y38	Z38	X39	Y39	Z39	X40	Y40	Z40	X41	Y41	Z41	X42	Y42	Z42	X43	Y43	Z43	X44	Y44	Z44	X45	Y45	Z45	X46	Y46	Z46	X47	Y47	Z47	X48	Y48	Z48	X49	Y49	Z49	X50	Y50	Z50	X51	Y51	Z51	

245	1.0167	-118.66	1288.9	342.48	-232.29	1524.6	535.98	-260.51	1556.5	207.94	-290.85	1855.3	384.71	-156.98	1025.5	485.51	-157.99	1033.9	220.39	-395.31	1074.2	386.86	-395.86	1069.1	284.57	-240.57	975.14	561.05	-255.83	983.63	133.87	-247.14	1120.2	554.4	-267.51	1120	147.79	-409.14	1034.3	333.86	-289.54	673.17	522.9	-231.23	596.06	487.96	-299	587.32	499.37	-216.82	682.56	514.03	-290.4	520.69	488.13	-290.66	529.11	344.86	-373.98	369.99	503.58	-328.2	281.19	455.98	-389.61	301.94	488.47	-315.82	351.02	477.18	-420.52	102.23	439.48	-387.13	109.87	347.62	-491.22	74.237	378.62	-475.07	44.909	350.36	-481.5	44.416	414.71	-292.76	34.66	479.54	-257.72	41.244	355.85	-196.2	58.087	413.06	-170.18	703.49	146.18	-64.55	672.99	134.68	-122.79	626.31	161.06	-120.4	749.47	120.55	-44.784	571.02	143.18	-6.0858	578.71	285.56	-78.018	429.99	127.47	-1.771	350.34	141.96	-65.029	353.08	129.28	-13.753	426.09	135.65	-43.84	137.37	158.34	-4.9541	155.32	251.52	-99.542	91.913	215.73	-78.394	70.322	246.25	-90.507	68.614	184.26	106.51	95.25	118.93	148.55	113.18	234.6	197.99	136.82	173.3	-339.77	1592.6	384.19	-412.12	1281.1	378.82
246	1.0208	-113.68	1287.9	342.49	-227.21	1523.7	535.75	-254.93	1555.6	207.65	-285.53	1854.5	384.32	-152.3	1024.8	485.66	-153.02	1032.9	220.44	-390.56	1073.5	386.63	-391.01	1068.3	284.34	-236.18	974.57	561.03	-250.86	982.64	133.85	-242.7	1119.5	554.31	-262.43	1119	147.65	-404.37	1033.6	333.64	-286.93	672.89	522.91	-229.07	595.44	487.99	-296.87	587.09	499.41	-214.22	681.87	514.05	-288.73	520.36	488.17	-288.86	528.84	344.87	-372.98	370.03	503.61	-327.49	281.04	456.02	-388.85	302.04	488.46	-314.87	350.82	477.24	-420.38	102.31	439.4	-386.98	109.88	347.56	-491.13	74.36	378.55	-475.01	44.995	350.31	-481.44	44.558	414.66	-292.74	34.667	479.55	-257.66	41.159	355.86	-196.14	57.921	413.09	-165.52	702.33	146.76	-59.888	671.91	135.11	-118.03	625.25	161.75	-115.85	748.28	120.87	-39.433	570.32	143.76	-1.0986	578.01	286.28	-69.602	428.63	127.63	8.3279	350.61	142.08	-54.958	351.99	129.29	-5.2823	426.09	135.95	-28.631	136.56	157.84	9.435	155.19	251.17	-83.396	89.608	214.9	-61.935	68.49	245.49	-73.757	66.669	183.4	122.83	98.108	118.95	163.94	116.79	234.83	213.06	141.72	173.77	-334.46	1591.9	383.81	-407.25	1280.5	378.35
247	1.025	-108.69	1286.9	342.49	-222.1	1522.8	535.5	-249.34	1554.7	207.35	-280.16	1853.6	383.9	-147.59	1024.2	485.81	-148.02	1031.9	220.49	-385.79	1072.8	386.4	-386.14	1067.5	284.1	-231.76	973.98	561.01	-245.87	981.61	133.83	-238.23	1118.8	554.21	-257.35	1118	147.52	-399.58	1032.8	333.42	-284.3	672.6	522.92	-226.88	594.82	488.02	-294.72	586.86	499.45	-211.6	681.17	514.06	-287.05	520.04	488.21	-287.03	528.58	344.87	-371.97	370.07	503.64	-326.78	280.88	456.06	-388.08	302.14	488.44	-313.9	350.63	477.29	-420.23	102.39	439.33	-386.82	109.9	347.51	-491.04	74.492	378.47	-474.96	45.087	350.26	-481.38	44.708	414.61	-292.72	34.686	479.58	-257.59	41.076	355.88	-196.09	57.752	413.11	-160.88	701.14	147.31	-55.254	670.77	135.52	-113.31	624.14	162.42	-111.31	747.04	121.17	-34.122	569.56	144.32	3.8381	577.24	286.99	-61.234	427.29	127.78	18.331	350.94	142.21	-44.956	350.95	129.3	3.1111	426.1	136.27	-13.527	135.91	157.38	23.695	155.19	250.85	-67.362	87.514	214.09	-45.585	66.87	244.76	-57.103	64.942	182.57	138.95	101.12	119.03	179.1	120.54	235.12	227.88	146.74	174.31	-329.13	1591.2	383.41	-402.35	1279.9	377.87
248	1.0292	-103.68	1285.8	342.47	-216.98	1521.9	535.23	-243.74	1553.7	207.03	-274.77	1852.7	383.47	-142.85	1023.5	485.95	-143	1030.9	220.54	-380.99	1072.1	386.17	-381.24	1066.6	283.87	-227.32	973.37	560.98	-240.86	980.56	133.81	-233.74	1118.1	554.1	-252.26	1116.9	147.39	-394.76	1032.1	333.2	-281.65	672.31	522.93	-224.67	594.2	488.05	-292.55	586.63	499.48	-208.98	680.47	514.05	-285.35	519.72	488.24	-285.18	528.3	344.87	-370.95	370.12	503.65	-326.05	280.73	456.1	-387.31	302.26	488.42	-312.92	350.43	477.35	-420.09	102.48	439.25	-386.65	109.93	347.45	-490.94	74.632	378.39	-474.89	45.185	350.2	-481.31	44.867	414.55	-292.7	34.717	479.62	-257.51	40.996	355.89	-196.03	57.579	413.12	-156.26	699.9	147.84	-50.637	669.58	135.91	-108.61	622.98	163.06	-106.78	745.75	121.46	-28.845	568.75	144.87	8.7272	576.4	287.7	-52.916	425.97	127.94	28.234	351.3	142.35	-35.028	349.97	129.31	11.425	426.12	136.58	1.4584	135.42	156.96	37.82	155.33	250.55	-51.454	85.631	213.31	-29.357	65.458	244.09	-40.564	63.431	181.77	154.87	104.28	119.16	194.03	124.41	235.46	242.45	151.86	174.9	-323.8	1590.4	382.99	-397.42	1279.2	377.37
